<?xml version="1.0" encoding="UTF-8"?>
<svg id="Capa_1" xmlns="http://www.w3.org/2000/svg" viewBox="0 0 1080 587.77">
  <defs>
    <style>
      .cls-1 {
        fill: #1f1e1e;
      }

      .cls-2 {
        fill: #ffca05;
      }
    </style>
  </defs>
  <path class="cls-2" d="M439.54,139.45c-.84-1.31-1.4-2.9-.47-4.73l.14-.19c.94-.94,2.48-1.03,3.56-.61l.14.09c1.92,1.31,3.14,3.42,4.12,5.15,2.2,5.11,2.2,11.85.7,17.24l-.05.19-.14.09c-.38.42-1.08.7-1.78.23l-.23-.19-.05-.28c-.89-4.59-1.87-9.18-3.65-13.45-.23-.56-.56-1.12-.98-1.73-.47-.61-.94-1.22-1.31-1.83Z"/>
  <path class="cls-2" d="M481.34,228.8c1.08-3.23,4.17-6.42,7.68-7.17h.89c.23,0,.56.05.84.09.7.23,1.27.7,1.45,1.64.23,2.06.33,5.06-1.83,6.7l-.09.05-.14.05c-2.2.7-4.64.94-7.03.8h-.14l-.09-.05c-.14-.05-.33-.14-.51-.19-.14-.09-.33-.23-.51-.37-.38-.28-.75-.84-.52-1.55Z"/>
  <path class="cls-2" d="M484.38,192.63c-.7-1.78-.33-3.42.28-4.92.56-1.36,1.45-2.72,1.92-4.03l.19-.28c.33-.33.61-.89.89-1.69.33-.75.61-1.59.94-2.3.75-1.64,2.06-2.91,4.64-1.83,1.64.89,2.62,2.2,3.37,3.47.42.61.75,1.27,1.17,1.87.38.56.8,1.12,1.27,1.64,3.7,4.17,6.37,9,5.06,14.99-.14.37-.23.66-.33.94-.09.33-.19.7-.33,1.03-.23.66-.7,1.45-1.78,1.69-1.13.33-2.11-.47-2.11-1.59-.09-1.45-.14-2.95-.37-4.36-.23-1.41-.66-2.67-1.45-3.75-.52-.52-.98-1.17-1.55-1.78-.51-.66-1.03-1.27-1.64-1.87-1.08-1.08-2.2-1.83-3.51-1.87-.89.28-1.73.98-2.53,1.83-.38.47-.8.98-1.17,1.45l-1.03,1.41c-.42.7-1.31.51-1.59.38l-.23-.14-.09-.28Z"/>
  <path class="cls-2" d="M617.22,232.03l-.09.14-.14.09c-.84.66-2.01.75-3,.7-.98,0-2.02-.23-2.86-.33l-.14-.05-.09-.05c-2.39-1.31-2.86-4.08-3.05-6.28,0-.66.14-1.5.94-2.16l.19-.14h.23c2.44,0,5.06.56,6.79,2.72l.09.14c.33.75.84,1.5,1.12,2.29.33.84.52,1.87,0,2.91Z"/>
  <path class="cls-2" d="M619.8,193.38c-.09.38-.19.75-.33,1.12-.33.52-.7.94-1.12,1.22-.47.28-1.12.42-1.78,0-.66-.28-1.17-.75-1.5-1.22-.19-.23-.38-.47-.52-.75l-.38-.7c-.51-.89-.94-1.36-1.87-1.27-.94-.05-1.59.28-2.34.75-.38.28-.75.56-1.12.84s-.75.61-1.22.84c-.7.61-1.45,1.26-2.25,1.92-.75.66-1.5,1.31-2.2,2.01-1.36,1.45-2.39,2.95-2.72,4.73-.14.42-.23.8-.28,1.17-.09.38-.14.8-.23,1.22-.19.8-.47,1.73-1.36,2.3-1.36.42-2.76-.52-2.76-1.69-.42-5.34,1.31-10.45,5.25-14.06,1.78-1.45,3.33-3.19,4.78-5.01,1.5-1.83,2.9-3.75,4.4-5.48l.38-.24c2.16-.42,3.61,1.13,4.31,2.44,2.06,2.62,3.51,5.48,4.78,8.48.14.47.14.98.09,1.36Z"/>
  <path class="cls-2" d="M665.11,130.26c-.09.33-.28.61-.42.84l-.51.84c-2.39,2.34-4.92,4.54-7.31,6.84-2.34,2.3-4.54,4.69-6.19,7.22-1.17,1.64-2.06,3.47-2.95,5.39-.33.66-1.12.75-1.64.61l-.33-.14-.14-.33c-.47-1.5-.42-3-.14-4.41.23-1.4.7-2.76,1.03-4.08,2.39-6.37,7.78-12.32,13.21-16.4.84-.56,2.53-.98,3.84-.42.56,1.31,1.08,2.67,1.55,4.03Z"/>
  <path class="cls-2" d="M659.44,228.38l5.48-8.48c-1.78,4.69-3.84,9.23-6.14,13.59-.23-1.69-.09-3.42.66-5.11Z"/>
  <path class="cls-1" d="M436.4,230.02l-7.03-13.87c2.16,6.32,4.83,12.42,7.97,18.23.14-1.59-.42-3.19-.94-4.36ZM662.67,202.84c-5.67-7.45-4.69-16.12-5.34-25.58-.14-.8-1.22-1.87-2.11-2.11-.7-.19-2.11.66-2.44,1.08-1.83,6.04-.7,13.59.84,19.07,1.12,4.31,2.9,8.34,4.83,12.37.19.75-.38,1.55-1.03,1.78-4.45.33-9-.14-13.45-.56-5.9-.89-10.17-5.48-14.95-8.95-.56-.42-1.12.23-1.45.7,1.36,6.56,8.58,10.21,10.82,16.35,1.45,4.78,6,8.58,7.12,13.68,0,.8-.56,1.59-1.22,2.02-1.55.47-3.23-.66-4.69.23-.23,2.76,1.59,5.67.33,8.58-1.55,2.44-3.79,5.34-6.79,5.44-5.9-1.97-11.57-4.45-17.48-6.23-4.22-.33-8.43.23-12.46.8-3.8-.8-6.47-4.12-9.37-6.33-.89-.23-1.78-.37-2.44.33-6.56,6.56-13.59,13.59-23.38,13.12-.56-.09-1.12-.66-1.12-1.22l.09-.66c4.36-3.8,9.47-7.92,11.29-13.26,1.31-4.45,5.34-7.69,6.65-12.14.23-.8-.42-1.12-.98-1.22l-1.12.56c-4.69,5.01-8.34,10.21-11.81,15.7-3.56,3.65-8.81,5.76-14.15,4.45-.66-.47-.66-1.45-.33-2.01,20.15-12.37,22.49-34.39,28.07-54.45,3.89-13.26,6.7-26.94,17.15-37.77,15.18-16.59,34.02-26.71,50.75-41.05-1.41-2.16-2.86-4.22-4.4-6.23-22.87-30.41-59.27-50.04-100.27-50.04s-76.33,19.07-99.24,48.73c-1.55,1.92-2.95,3.89-4.31,5.91,2.9,1.31,5.72,2.67,8.25,4.59l26.43,21.98c.33.84,1.41,1.45,2.11,2.11,7.54,9,15.37,17.9,21.37,27.69,2.01,3.47,2.81,7.26,3.8,10.92,1.22,14.95,5.34,27.97,10.12,41,1.36,2.11,3.89,3.47,5.34,5.58,4.12,5.76,6.79,13.12,13.49,17.01l3.98,2.01c.23.33.37.89,0,1.36l-.66.56c-8.01,1.31-14.15-3.7-18.37-9.61-2.67-5.11-6.14-10.78-11.9-12.79-.33-.09-.56.23-.8.42.8,1.78,2.58,3.23,3.33,5.01,2.25,3.56,4.26,7.59,5.39,11.25,1.22,4.12,5.76,7.26,9.42,9.61l5.25,2.67c.66.42.89,1.45.33,2.01l-.75.42c-8.81.23-16.63-2.58-22.63-9-1.45-1.59-3.33-3.05-5.43-3.05-3.89,3.47-7.82,6.93-13.03,7.26-5.34-.89-11.48-1.03-16.4,1.12-4.45,1.55-8.9,3.42-13.92,3.65-2.34,0-5.01-1.12-5.76-3.33,0-2.81-2.11-6.14-.38-9.04l3.37-4.87c0-.7-.47-1.22-1.12-1.36-1.45-.23-3.56,2.11-4.12-.33.33-5.01,5.11-8.01,8.48-11.48.75-3.98,2.34-7.45,5.11-10.54,0-.47-.42-.89-.89-1.12-4.12.66-8.34,1.78-12.93,1.64-3.56,1.92-8.01,3.23-12.23,1.92-.89-.56-.56-1.55-.33-2.34,4.45-6,6-13.82,4.87-21.51-.33-.33-1.08-1.27-1.73-1.08-.7,0-1.59.84-1.83,1.31-.98,7.03-1.78,12.79-5.53,18.7-1.92,2.01-4.64,2.58-7.31,3.14.42,1.59.84,3.19,1.36,4.73.7-.56,1.78-.52,2.58-.84,2.11-.09,3.8.98,5.67,1.55,2.02,5.34,4.12,10.59,7.92,15.27.8,2.76,1.69,6.65-.23,9.23-.75,1.5-1.5,2.9-2.3,4.26,1.27,2.11,2.67,4.22,4.22,6.23,22.68,31.77,59.93,52.43,101.96,52.43s77.83-19.91,100.69-50.6c1.73-2.34,3.37-4.69,4.92-7.17-.19-.61-.33-1.31-.47-2.01-.98-1.92-1.55-4.12-2.01-6.37-.42-1.87.14-3.23.7-5.01l8.34-15.13c.66-.89,1.31-1.87,2.34-2.34,1.64.38,3.33,1.08,4.87,1.87.61-1.83,1.17-3.7,1.64-5.58-2.25-1.36-4.59-2.58-6.19-5.11ZM443.76,213.81c2.86-.52,6.14-1.27,9.7-1.78-.75.94-1.59,1.92-2.39,2.95-1.31,1.64-2.76,3.47-3.94,5.58-1.5-2.39-2.72-4.69-3.37-6.75ZM649.97,216.99c-.61,1.17-1.27,2.44-1.87,3.7-1.27-2.48-2.67-5.11-4.08-7.54.98.14,1.92.23,2.91.28,1.45.09,2.95.19,4.78.28-.61,1.03-1.17,2.16-1.73,3.28ZM429.37,216.15c2.16,6.32,4.83,12.42,7.97,18.23.14-1.59-.42-3.19-.94-4.36l-7.03-13.87Z"/>
  <g>
    <path class="cls-1" d="M436.4,230.02l-7.03-13.87c2.16,6.32,4.83,12.42,7.97,18.23.14-1.59-.42-3.19-.94-4.36ZM436.4,230.02l-7.03-13.87c2.16,6.32,4.83,12.42,7.97,18.23.14-1.59-.42-3.19-.94-4.36ZM545.15,234c-1.5-1.4-2.48-1.97-6.23-4.08-2.91-1.64-4.83-4.12-6.51-6.98-.89-1.55-1.64-3.05-2.44-4.54-.84-1.5-1.73-3.05-2.81-4.45-.42-.56-.98-1.13-1.5-1.73l-1.45-1.5c-.42-.42-.8-.84-1.12-1.26-.33-.38-.42-.61-.42-.66-6.33-16.17-7.78-25.35-10.07-41.33-1.27-9.18-7.17-16.63-14.99-26.24-1.73-2.11-3.8-4.87-6-7.64-2.2-2.81-4.69-5.76-6.98-7.97-7.17-6.09-12.32-10.54-16.82-14.24-4.55-3.7-8.48-6.75-13.35-10.03-1.97-1.36-3.94-2.44-5.86-3.33-14.01-6.37-26.24-1.87-29.71.47-6.14,4.17-10.4,6.51-14.95,8.39-4.69,1.92-9.65,3.42-16.87,5.86-5.72,1.87-9.65,5.11-12.65,7.87-1.41,1.31-2.62,2.58-3.75,3.61-1.12.98-1.78,1.41-2.2,1.59-.66.23-1.83.38-3.56.51-1.69.09-3.51.14-5.11.23-6.33.38-11.39,3.61-15.46,6.89-1.97,1.59-3.8,3.28-5.53,4.83-1.69,1.55-3.05,2.72-4.22,3.51-3.94,2.53-7.45,2.95-12.14,3.37-2.39.23-4.92.52-7.69,1.08-2.86.56-5.95,1.5-9.37,3.14-3.94,1.83-7.59,4.17-11.01,6.56-3.37,2.34-6.65,4.83-9.89,7.08-6.47,4.5-12.09,7.64-17.99,7.64-4.69,0-8.86-2.48-9.42-7.64-.47-4.26,1.78-8.81,6.51-12.6,3.23-2.62,6.23-4.97,8.86-7.22,2.62-2.25,5.01-4.54,6.93-7.03,3.94-5.15,5.48-10.96,3.51-18.74-2.06-8.34-9.28-12.09-15.46-13.96-3.09-.94-6.23-1.45-8.81-1.87-1.17-.19-2.25-.38-3.14-.52-.94-.19-1.31-.28-1.41-.33-4.59-2.06-15.37-9.32-15.46-9.42l-2.34-1.59-1.64,2.34c-1.97,2.86-3.42,5.15-4.45,13.96-1.27,10.64,7.31,23.15,21.88,25.44-14.81,11.62-18.09,17.01-18.88,30.13-1.03,17.2,12.56,36.41,42.22,31.77.7,9.65,2.44,16.73,4.54,20.01-.33.33-.98.75-2.25,1.22-2.86,1.12-7.31,1.83-11.53,1.83-5.01-.05-7.36,4.45-8.57,7.4-.66,1.59-1.17,3.28-1.64,4.83-.23.7-.47,1.36-.66,1.92-.19.47-.33.84-.52,1.17-.47.89-1.27,1.73-2.2,2.58-1.41-2.58-3.94-4.92-8.01-5.81h-.28c-5.34-.19-13.78,4.08-16.91,11.9l-.33.05c-4.78.47-7.26,3.05-8.58,6.32-.56,1.45-.89,3-1.17,4.41-.28,1.36-.47,2.72-.84,4.08-.23.8-.51,1.41-.8,1.97-.42.75-.8,1.31-1.12,1.92-.98,1.78-1.5,3.75-.75,6.79.56,2.16,2.3,3.42,3.65,4.17,1.45.8,3.14,1.31,4.73,1.69,3.09.8,6.23,1.03,7.08,1.03.94,0,1.69-.28,2.2-.61.38-.19.75-.47,1.17-.8l1.41.28c1.17.23,2.62.52,4.08.8,1.45.28,2.95.61,4.12.8.61.14,1.17.23,1.59.28.66.09,1.12.14,1.41.14,6.04-.28,9.37-2.53,11.71-5.67.51-.7.98-1.4,1.45-2.16.38-.7.8-1.4,1.22-2.06.42-.8.89-1.55,1.41-2.2.75.19,1.5.33,2.16.47,1.41.23,2.76.33,3.42.38,7.12.56,12.23-3.33,16.07-6.56.94-.8,1.83-1.59,2.76-2.34.8-.7,1.59-1.31,2.39-1.87,1.55-1.03,2.72-1.41,3.8-1.36,2.48.19,7.78.7,15.13,1.87,3.14.47,6.84-.84,9.7-2.11,3-1.31,5.81-3,7.4-3.98.47-.33,1.03-.56,1.69-.89.8-.38,1.69-.75,2.58-1.22,1.92-.94,4.08-2.34,5.9-4.59,1.12-1.41,2.48-4.12,3.89-6.93,1.17-2.39,2.48-5.15,3.89-7.97,2.91.09,6.47-.37,9.65-.8,3.94-.61,7.78-1.31,9.79-1.4,1.17-.05,14.43,1.26,22.3.7,2.58-.23,4.83-.61,6.61-1.12.56-.19,1.17-.38,1.78-.66.98.94,2.01,1.92,3.05,2.86-.42,0-.8.05-1.22.09-1.87.28-4.41.98-5.81,2.86-.38-.14-.7-.28-1.08-.37-.8-.23-1.5-.28-2.11-.28h-1.92c-1.97,0-6.37,0-10.21.61-1.92.33-4.08.84-5.76,1.78-1.69.98-3.51,2.81-3.33,5.62.23,4.12,5.58,14.39,9.32,18.09,1.36,1.36,4.87,2.16,7.78,1.92,3.84,7.59,10.78,12.98,17.43,12.74,6-.19,21.13-5.86,30.64-10.36.28-.05.61-.09.98-.14.84-.14,1.87-.23,2.95-.37,2.16-.24,5.01-.66,7.21-1.69,1.87-.89,4.03-3.47,6-6.75.38-.7.8-1.45,1.22-2.25.23.89.61,1.73,1.03,2.58,1.97,3.75,5.72,6.14,11.67,5.9,3.19-.09,6.61-1.17,9.65-2.16,2.9-.94,5.76-1.97,8.25-2.44,1.08-.19,2.3-.19,3.7-.14,1.5.09,3.05.23,4.59.33,3.09.23,6.84.28,10.21-1.31,2.86-1.17,5.06-2.76,6.56-3.84l.51-.37c3.7,3.33,12.74,9.93,26.47,9.51,6.75-.23,9.93-4.64,8.86-8.76,2.39-.42,4.26-1.31,5.67-2.53,2.2-1.97,3.65-5.81.89-8.39ZM232.72,252.84c-1.55,3.8-2.58,8.58-3.89,12.93-3-.33-5.34-1.31-7.83-2.11-.66-.66,0-1.45.14-2.11,2.76-2.58,2.01-5.9,2.58-9.47.42-2.01,2.3-3.7,4.12-4.59,2.2.47,3.56,2.58,4.87,4.26v1.08ZM233.37,244.4c.23-1.22-.19-2.91.89-3.7,2.67-1.64,5.25-3.33,7.68-5.44.8-.23,1.78-.66,2.48-.09.98.89,2.2,1.78,2.53,3-1.78,3.23-3.98,6.98-7.45,9-1.36.47-2.9.33-4.12-.23-.66-.66-2.02-1.45-2.02-2.53ZM393.76,231.71l.98-.66c3.56,0,7.12-.14,10.68-.7,3.56.14,2.58,4.36,4.03,6.47.19,1.45,2.34,3,.89,4.26-2.58,1.97-5.58,3.33-8.95,2.76-2.53-1.92-2.44-5.67-4.64-8.15-.56-1.87-3.7-1.87-3-3.98ZM447.13,220.55c-1.5-2.39-2.72-4.69-3.37-6.75,2.86-.52,6.14-1.27,9.7-1.78-.75.94-1.59,1.92-2.39,2.95-1.31,1.64-2.76,3.47-3.94,5.58ZM539.16,238.17l-.66.56c-8.01,1.31-14.15-3.7-18.37-9.61-2.67-5.11-6.14-10.78-11.9-12.79-.33-.09-.56.23-.8.42.8,1.78,2.58,3.23,3.33,5.01,2.25,3.56,4.26,7.59,5.39,11.25,1.22,4.12,5.76,7.26,9.42,9.61l5.25,2.67c.66.42.89,1.45.33,2.01l-.75.42c-8.81.23-16.63-2.58-22.63-9-1.45-1.59-3.33-3.05-5.43-3.05-3.89,3.47-7.82,6.93-13.03,7.26-5.34-.89-11.48-1.03-16.4,1.12-4.45,1.55-8.9,3.42-13.92,3.65-2.34,0-5.01-1.12-5.76-3.33,0-2.81-2.11-6.14-.38-9.04l3.37-4.87c0-.7-.47-1.22-1.12-1.36-1.45-.23-3.56,2.11-4.12-.33.33-5.01,5.11-8.01,8.48-11.48.75-3.98,2.34-7.45,5.11-10.54,0-.47-.42-.89-.89-1.12-4.12.66-8.34,1.78-12.93,1.64-3.56,1.92-8.01,3.23-12.23,1.92-.89-.56-.56-1.55-.33-2.34,4.45-6,6-13.82,4.87-21.51-.33-.33-1.08-1.27-1.73-1.08-.7,0-1.59.84-1.83,1.31-.98,7.03-1.78,12.79-5.53,18.7-1.92,2.01-4.64,2.58-7.31,3.14-1.36.23-2.67.47-3.94.89-.89.42-1.92,1.22-1.92,2.34-.09,2.44,1.69,4.31,2.67,6.42l8.58,15.51c.23,4.36-1.55,8.48-2.53,12.23.42.8,1.08.47,1.64.14,3-2.67,4.92-6.23,6.14-9.93.05-.23.05-.42.05-.66.14-1.59-.42-3.19-.94-4.36l-7.03-13.87-1.78-3.47c.09-.23.23-.38.42-.52.7-.56,1.78-.52,2.58-.84,2.11-.09,3.8.98,5.67,1.55,2.02,5.34,4.12,10.59,7.92,15.27.8,2.76,1.69,6.65-.23,9.23-.75,1.5-1.5,2.9-2.3,4.26-1.22,2.16-2.53,4.26-4.03,6.42-2.25,2.34-5.67,2.11-8.81,2.48h-2.58c-7.69,4.08-15.88,6.75-24.13,9.32-3.7,1.55-7.92.47-10.68-2.01-2.91-2.2-4.12-5.67-6.04-8.57-2.2-2.76-5.76-.33-8.34-1.87-2.25-3.7-4.45-7.26-6.47-10.92-.09-.98.14-2.01.89-2.67,2.9-.98,6.14-1.12,9.37-1.45,3-.23,6,.23,8.01,2.44,3.89,4.59,5.48,10.82,11.34,13.73,4.45.42,8.62-1.12,12.37-3.05,2.25-1.31,4.92-3.33,4.92-6.19-.33-5.72-4.22-10.26-8.9-13.5-4.92-2.58-10.17-6.14-13.73-10.68-1.78-2.44-2.2-5.48-3.23-8.25-.42-.56-2.11-.84-2.62-.42-1.92,1.69-.23,2.91,0,4.87.19,1.36-.09,3-.89,4.26-2.76,2.2-5.39,1.31-9,1.45-7.22-.47-13.31-1.03-20.85-.38-7.26.33-17.2,4.12-22.54-2.9-2.67-6.65-.42-14.81.8-21.7,0-.8-1.36-1.41-2.02-1.5-.56-.23-2.2.28-2.44.94-1.78,6.65-2.34,14.24-3.8,21.27-2.67,6.23-6.98,11.25-13.35,14.48-5.67,2.91-12.04,4.03-18.7,4.45-12.28.23-23.85,2.67-31.3,13.26-.56.98-1.69,3.23-1.36,4.54.47.47,1.22.66,1.78.33,8.39-9.47,19.31-13.12,31.44-12.7,16.35,0,22.68-1.03,30.74-12,1.87-2.25,3.09-4.69,4.78-7.03,1.31-.09,2.34,1.55,3.23,2.34.19,3.47-2.67,5.76-3.79,8.81-1.45,3.19-3.14,7.12-6.56,8.9-3.89.89-7.12,3.56-10.59,5.67-3.7,1.64-8.15,2.34-12.37,1.22-5.34-.98-12.46-2.34-17.57.09-2.72,1.69-4.83,4.59-7.36,6.28-3.7,1.4-6.79,4.54-11.15,4.31-2.91-.56-6.56-2.53-9,.14-3.14,3-4.03,8.01-8.15,9.89-4.78,2.67-9.89,0-14.81-.42.8-4.69,1.45-9.47,4.45-12.93,1.87-.23,3.7-.56,5.11-1.87,1.92-1.69,3.37-3.94,4.69-6.04,4.12-2.58,9.04-4.69,11.71-9.14,1.97-4.22,2.11-8.11,5.34-11.9l1.64-.8,8.71-.51c3.56-1.59,6.89-3.23,10.12-5.72.98-1.12,1.22-2.67.98-4.12-1.55-4.22-3-7.22-3.98-11.57-1.12-4.69-.33-9.23-.89-14.34-.33-.47-.66-1.27-1.45-1.27-5.81,1.27-11.48,2.91-17.8,1.92-8.72-1.12-17.71-6.79-20.95-15.51-2.9-7.54-2.2-18.13,3.33-24.13,5.25-6.47,11.81-11.48,18.04-16.73,1.03-.75,1.12-1.87,1.36-3-.14-1.22-1.22-2.34-2.34-2.76-4.03-.89-8.48.33-12.37-1.36-6.7-2.44-12.04-8.81-12.93-15.79-.19-3.14.33-5.9,2.01-8.48,4.36,2.34,8.15,6.14,13.03,7.45,7.68,1.92,16.17,2.16,22.07,8.25,3.09,3.89,3.42,10.59,1.12,14.71-4.45,7.78-13.5,11.81-19.16,18.6-5.48,4.69-7.59,11.81-5.67,18.7,1.97,6,8.01,10.36,14.24,10.82,9.56.19,16.91-4.59,24.6-9.04,7.68-5.43,14.81-12.56,23.85-14.81,5.67-2.11,12.46-.98,18.04-3.33,6.33-1.22,11.01-6.47,15.88-10.92,5.48-4.45,11.95-7.12,19.16-6.79,6.47.98,10.12-4.92,14.48-8.72,7.5-6.65,17.24-7.45,25.96-11.34,6-2.01,11.1-6.33,16.82-9.32,5.44-2.39,13.03-2.81,18.6-.7.75.37,1.55.7,2.3,1.08,2.9,1.31,5.72,2.67,8.25,4.59l26.43,21.98c.33.84,1.41,1.45,2.11,2.11,7.54,9,15.37,17.9,21.37,27.69,2.01,3.47,2.81,7.26,3.8,10.92,1.22,14.95,5.34,27.97,10.12,41,1.36,2.11,3.89,3.47,5.34,5.58,4.12,5.76,6.79,13.12,13.49,17.01l3.98,2.01c.23.33.37.89,0,1.36ZM436.4,230.02l-7.03-13.87c2.16,6.32,4.83,12.42,7.97,18.23.14-1.59-.42-3.19-.94-4.36ZM436.4,230.02l-7.03-13.87c2.16,6.32,4.83,12.42,7.97,18.23.14-1.59-.42-3.19-.94-4.36ZM436.4,230.02l-7.03-13.87c2.16,6.32,4.83,12.42,7.97,18.23.14-1.59-.42-3.19-.94-4.36Z"/>
    <path class="cls-1" d="M877.69,261.93c-.23-.98-.61-2.06-.98-3.05-.33-.89-.66-1.78-.94-2.53-.09-.28-.19-.56-.23-.8.38-4.12-.7-6.42-2.25-9.04-2.39-4.12-6.75-4.64-7.17-2.39.05-.33.09-.7.09-1.12.05-1.03-.09-2.3-.84-3.65-1.41-2.62-10.64-10.54-14.99-10.54-2.91,0-6.42,1.45-9.09,4.69-.23-.47-.47-.98-.66-1.5-.7-1.87-1.03-3.84-1.5-5.72-.94-4.12-2.48-9.23-9-11.11-.61-.19-1.31-.33-2.11-.37-.61-.05-1.27-.09-1.97-.09-1.22-.05-2.48-.05-3.61-.23-2.06-.28-2.06-.7-2.06-1.59l.61-1.73c.47-1.5,1.12-3.47,1.59-5.67.75-3.51,1.27-7.97.23-12.46,2.16.33,3.98.38,4.83.38,13.82,0,31.82-9.42,31.82-29.71,0-10.82-7.68-21.93-17.95-31.35,13.07-3.42,18.84-12.37,18.84-22.91,0-1.92.09-4.12-.33-6.61-.42-2.67-1.41-5.58-3.47-8.71-1.12-1.69-2.9-1.55-3.65-1.31-.7.19-1.36.56-1.83.89-.98.66-2.3,1.73-3.94,3.14-1.27,1.08-2.76,1.83-4.69,2.48-2.11.7-4.41,1.22-6.89,1.92-5.29,1.45-11.57,3.75-18.46,9.79-3.28,2.91-5.67,7.73-5.9,12.46-.23,4.54,1.73,8.62,4.36,12.18,2.58,3.61,6.04,6.98,9.33,10.12,1.64,1.59,3.33,3.14,4.87,4.69,1.5,1.45,2.86,2.95,4.08,4.4,2.39,2.95,3.56,5.34,3.56,7.4,0,4.4-3.19,7.21-7.87,7.17-6.23-.05-11.11-2.62-17.48-6.84-3.19-2.11-6.65-4.55-10.68-7.08-4.08-2.53-8.72-5.15-14.24-7.64-2.95-1.31-5.62-2.2-8.11-2.86-2.44-.66-4.69-1.08-6.8-1.55-4.17-.84-7.5-1.69-10.96-3.98-2.95-1.97-6.19-4.26-9.51-6.33-3.37-2.11-7.03-4.12-10.68-5.2-1.17-.33-2.25-.56-3.37-.7-.94-.19-1.87-.28-2.81-.38-1.69-.28-3.05-.56-4.55-1.41-1.12-.7-2.11-1.36-3.05-2.06-.98-.7-1.92-1.45-2.91-2.25-2.16-1.64-4.45-3.42-8.01-5.3-5.58-3.05-11.15-4.5-15.42-5.53-2.06-.47-3.84-.89-5.25-1.36-.66-.23-1.12-.42-1.45-.61-.19-.05-.33-.14-.37-.19-10.78-13.59-24.46-16.59-32.57-15.74-4.22.47-8.81,3.47-13.21,6.89-.8.56-1.55,1.17-2.3,1.78-5.06,4.17-10.49,9.18-15.74,12.89-17.99,12.79-25.12,18.32-34.25,28.25-12.04,13.17-15.88,29.57-19.3,44.75-1.69,7.5-3.33,14.9-5.81,21.79-2.44,6.75-5.67,12.79-10.54,17.85-2.58,2.72-4.31,4.31-5.58,5.34-1.31,1.12-2.2,1.69-3,2.25-6.56,4.69-2.25,13.07,7.64,13.26-1.17,4.97,5.48,7.4,8.81,7.45,7.87.19,16.96-2.06,24.79-10.22,3.37,3.05,7.31,3.89,10.92,3.98,2.11.05,4.22-.19,6.14-.42.84-.09,1.69-.19,2.44-.23.66-.05,1.22-.05,1.78,0,.89.05,2.16.38,3.75.94,1.64.56,3.42,1.27,5.2,1.92,3.47,1.31,7.78,2.9,11.2,2.72,7.03-.42,10.78-5.25,12.23-10.03.19.75.38,1.5.61,2.25.38,1.31.84,2.62,1.45,3.84.94,1.87,2.11,3.61,3.8,5.06,1.03.89,2.25,1.31,3.65,1.55,1.12.19,2.72.28,4.97.28.19.19.47.42.89.8.47.51.98,1.03,1.45,1.45.56.47,1.36,1.03,2.34,1.41,9.93,3.37,22.77,6.98,29.43,7.12,9.6.14,13.45-8.34,14.67-13.4,9.28-1.83,14.15-15.09,14.1-17.81-.05-5.76-3.28-7.36-7.36-7.68h-14.15c-.51,0-1.03.09-1.45.23-.75-1.17-1.73-1.92-3.19-2.25.28-.28.61-.56.89-.8,2.81.09,9.51.33,13.87.09,7.5-.42,11.99-1.64,21.65-1.64l13.35.7c2.48,0,5.39-.23,8.25-1.17.84,6.8,3.05,13.07,6.7,17.99,1.17,1.55,2.53,2.67,3.84,3.61,1.22.84,2.53,1.55,3.84,2.39,4.73,2.95,10.78,6.7,19.16,4.54,2.48-.66,4.73-.66,6.79-.47,2.2.28,4.12.8,5.76,1.17,2.62.66,4.83,1.69,6.75,2.86,2.06,1.22,3.8,2.58,5.48,3.84,3.37,2.58,7.26,5.48,12.79,5.25.52,0,.98-.14,1.27-.19.28-.09.66-.23,1.03-.38.61-.23,1.41-.51,2.16-.8.7-.28,1.36-.56,2.11-.7.66.94,1.36,2.25,2.34,3.51,2.44,3.14,6.37,6.09,13.96,6.28,4.36.09,7.68-.14,9.79-.47.98.66,2.2,1.17,3.65,1.17,2.16,0,5.39-.61,8.15-1.64,1.36-.51,2.81-1.22,3.98-2.06,1.12-.84,2.44-2.16,2.72-4.08.19-1.27,0-2.53-.28-3.56ZM648.1,220.69c-1.27-2.48-2.67-5.11-4.08-7.54.98.14,1.92.23,2.91.28,1.45.09,2.95.19,4.78.28-.61,1.03-1.17,2.16-1.73,3.28-.61,1.17-1.27,2.44-1.87,3.7ZM856.98,265.91c-4.54,0-10.59,1.31-14.01-2.01-3.94-2.58-5.25-9.7-10.92-7.83-2.48,2.02-6.14,2.67-9.14,1.45-2.81-.98-4.78-3.65-7.36-5.11-7.78-5.67-18.04-8.58-28.16-6.37-5.81,1.59-10.36-2.44-15.04-5.2-6-2.58-7.78-9.14-9.14-14.71l-1.12-6.89c.14-.7.56-1.36,1.27-1.45h.89c4.36,10.17,8.67,16.54,19.02,19.91,8.58,3.47,15.93-.8,24.18.66,8.11,1.03,14.43,6.28,20.81,11.15.56.14.98-.42,1.22-.89v-.56c-7.36-9.32-17.71-15.7-29.71-14.81-9.93,2.16-19.96-1.22-25.63-9.65-3.14-4.83-5.58-8.48-6.47-14.15-.89-6.47-2.34-13.59-4.45-19.49-.56-.47-1.87-1.08-2.62-.61l-1.36,1.03c1.12,6.23,4.22,13.68,1.97,20.29-1.55,5.11-6.89,7.12-11.81,7.36-4.87.33-9.37-.28-14.39-.28-11.81-.42-21.22,3.09-33.36,1.87.98-2.81,2.81-5.11,1.83-8.34-.47-.66-1.97-.61-2.62-.52-2.2,1.45-2.01,4.22-3.33,6.14-2.58,4.36-7.36,8.01-12.23,9-3.47,2.67-6.84,6.37-9.61,9.61-1.12.98-1.12,2.76-.8,4.22,2.48,5.76,9.04,6.56,14.38,8.01,2.58.23,5.01-.66,6.23-2.91,2.25-3.56,2.67-9.32,7.92-10.03h11.34c.89.37,1.78.89,2.11,1.92l-.42,1.55c-2.44,3-3.56,7.03-6.89,9.23-1.83.56-4.26-.09-5.48,1.59-.66,3.89-1.64,8.01-5.58,10.12-2.76,2.58-7.21,1.31-10.36.33-6-2.34-12.46-3.47-18.46-5.44-2.67-.8-3.7-4.03-6.37-4.69-2.67-.7-5.53,1.45-7.69-.89-1.08-2.16-1.69-3.89-2.2-6-.19-.61-.33-1.31-.47-2.01-.98-1.92-1.55-4.12-2.01-6.37-.42-1.87.14-3.23.7-5.01l8.34-15.13c.66-.89,1.31-1.87,2.34-2.34,1.64.38,3.33,1.08,4.87,1.87.38.19.75.37,1.12.56l-.33,1.03-3.09,4.78-5.48,8.48c-.75,1.69-.89,3.42-.66,5.11.33,2.67,1.5,5.29,2.53,7.59.47.19.7.84,1.12.66-.19-2.67-.56-5.34,0-8.15.56-2.44,2.11-4.87,3.7-7.12l6.79-10.03c.75-1.78.56-4.31-.56-5.9-1.08-1.08-2.3-1.83-3.51-2.58-2.25-1.36-4.59-2.58-6.19-5.11-5.67-7.45-4.69-16.12-5.34-25.58-.14-.8-1.22-1.87-2.11-2.11-.7-.19-2.11.66-2.44,1.08-1.83,6.04-.7,13.59.84,19.07,1.12,4.31,2.9,8.34,4.83,12.37.19.75-.38,1.55-1.03,1.78-4.45.33-9-.14-13.45-.56-5.9-.89-10.17-5.48-14.95-8.95-.56-.42-1.12.23-1.45.7,1.36,6.56,8.58,10.21,10.82,16.35,1.45,4.78,6,8.58,7.12,13.68,0,.8-.56,1.59-1.22,2.02-1.55.47-3.23-.66-4.69.23-.23,2.76,1.59,5.67.33,8.58-1.55,2.44-3.79,5.34-6.79,5.44-5.9-1.97-11.57-4.45-17.48-6.23-4.22-.33-8.43.23-12.46.8-3.8-.8-6.47-4.12-9.37-6.33-.89-.23-1.78-.37-2.44.33-6.56,6.56-13.59,13.59-23.38,13.12-.56-.09-1.12-.66-1.12-1.22l.09-.66c4.36-3.8,9.47-7.92,11.29-13.26,1.31-4.45,5.34-7.69,6.65-12.14.23-.8-.42-1.12-.98-1.22l-1.12.56c-4.69,5.01-8.34,10.21-11.81,15.7-3.56,3.65-8.81,5.76-14.15,4.45-.66-.47-.66-1.45-.33-2.01,20.15-12.37,22.49-34.39,28.07-54.45,3.89-13.26,6.7-26.94,17.15-37.77,15.18-16.59,34.02-26.71,50.75-41.05.47-.37.89-.8,1.36-1.17,2.58-2.2,5.15-4.45,8.48-4.64,8.01-.7,14.57,2.67,20.48,7.31,3.47,2.34,5.01,7.03,9.23,8.06,7.17,1.55,14.29,3.23,20.76,6.42,4.64,2.34,8.9,5.72,12.89,9.28,3.89,2.11,8.67,1.87,12.93,3.33,6.14,1.55,11.15,6.23,16.59,9.79,7.22,5.67,17.24,4.78,25.4,8.48,12.93,4.12,23.38,14.15,35.42,20.15,6.23,3.33,15.56,4.69,21.79.89,4.12-3,6.8-6.89,5.91-12.23-2.3-13.17-16.92-20.29-23.8-31.21-1.45-2.67-2.25-6-1.55-9.23,2.44-6.47,9.47-9.93,15.13-12.37,4.54-2.25,10.36-1.78,14.67-4.36,1.59-.89,2.81-2.34,4.03-3.33.98,0,.98.98,1.22,1.69,1.36,7.78-.09,15.79-6.89,20.38-2.58,1.78-5.67,2.53-8.81,3.33-2.58,1.13-7.69-1.12-7.45,3.42.56,2.16,2.67,3.7,4.31,5.15,9.04,7.54,17.38,17.15,18.51,28.82.33,9.04-5.91,16.96-13.68,20.71-5.67,2.48-13.03,3.37-19.3,1.59-1.64-.23-4.31-1.78-5.44.33-.42,2.44,1.22,4.45,1.36,6.89.66,4.26.52,9.7-.8,13.82-.56,3.23-4.03,7.12-.89,10.45,3,4.45,8.81,3.14,13.59,3.94,2.67.42,3.42,3.33,4.22,5.3.89,2.48,1.13,5.48,2.11,7.36-.09,4.83,5.34,6.7,8.15,9.93,3.33,3.56,6.09,9.7,11.81,9.37,1.78,3.98,3,7.54,3.56,12.14l-.8.56ZM695.09,233.39c-.47,3.09-1.45,6.23-2.58,9.09-1.03,2.02-3.8,1.36-5.67,1.12-2.02-.75-5.15-.98-5.48-3.79-.33-2.67.89-5.11,2.25-7.12,3-.42,6.47.23,9.47-.33.89-.23,1.78.09,2.01,1.03ZM858.11,246.42c-1.12.89-2.34,1.64-3.89,1.64-1.59-.09-3-.98-3.89-2.34-1.69-2.44-3.94-4.64-4.69-7.36,1.08-1.64,3.42-4.45,5.67-2.53,2.67,2.2,6,3.98,8.15,6.89.33,1.45-.56,2.67-1.36,3.7ZM870.9,264.46l-7.12,2.34c-1.22,0-.8-1.59-1.22-2.34-.8-4.12-1.69-7.03-3-11.06-.33-2.34,2.01-3.89,3.56-5.2,1.87-.47,3.23,1.22,4.69,2.34,1.64,2.3.98,5.9,1.55,8.43.47,1.87,2.76,3.47,1.55,5.48Z"/>
    <path class="cls-1" d="M447.74,156.41l-.05.19-.14.09c-.38.42-1.08.7-1.78.23l-.23-.19-.05-.28c-.89-4.59-1.87-9.18-3.65-13.45-.23-.56-.56-1.12-.98-1.73-.47-.61-.94-1.22-1.31-1.83-.84-1.31-1.4-2.9-.47-4.73l.14-.19c.94-.94,2.48-1.03,3.56-.61l.14.09c1.92,1.31,3.14,3.42,4.12,5.15,2.2,5.11,2.2,11.85.7,17.24Z"/>
    <path class="cls-1" d="M504.11,199.56c-.14.37-.23.66-.33.94-.09.33-.19.7-.33,1.03-.23.66-.7,1.45-1.78,1.69-1.13.33-2.11-.47-2.11-1.59-.09-1.45-.14-2.95-.37-4.36-.23-1.41-.66-2.67-1.45-3.75-.52-.52-.98-1.17-1.55-1.78-.51-.66-1.03-1.27-1.64-1.87-1.08-1.08-2.2-1.83-3.51-1.87-.89.28-1.73.98-2.53,1.83-.38.47-.8.98-1.17,1.45l-1.03,1.41c-.42.7-1.31.51-1.59.38l-.23-.14-.09-.28c-.7-1.78-.33-3.42.28-4.92.56-1.36,1.45-2.72,1.92-4.03l.19-.28c.33-.33.61-.89.89-1.69.33-.75.61-1.59.94-2.3.75-1.64,2.06-2.91,4.64-1.83,1.64.89,2.62,2.2,3.37,3.47.42.61.75,1.27,1.17,1.87.38.56.8,1.12,1.27,1.64,3.7,4.17,6.37,9,5.06,14.99Z"/>
    <path class="cls-1" d="M490.38,230.07l-.09.05-.14.05c-2.2.7-4.64.94-7.03.8h-.14l-.09-.05c-.14-.05-.33-.14-.51-.19-.14-.09-.33-.23-.51-.37-.38-.28-.75-.84-.52-1.55,1.08-3.23,4.17-6.42,7.68-7.17h.89c.23,0,.56.05.84.09.7.23,1.27.7,1.45,1.64.23,2.06.33,5.06-1.83,6.7Z"/>
    <path class="cls-1" d="M665.2,130.12s-.05.09-.09.14c-.09.33-.28.61-.42.84l-.51.84c-2.39,2.34-4.92,4.54-7.31,6.84-2.34,2.3-4.54,4.69-6.19,7.22-1.17,1.64-2.06,3.47-2.95,5.39-.33.66-1.12.75-1.64.61l-.33-.14-.14-.33c-.47-1.5-.42-3-.14-4.41.23-1.4.7-2.76,1.03-4.08,2.39-6.37,7.78-12.32,13.21-16.4.84-.56,2.53-.98,3.84-.42.61.19,1.08.66,1.41,1.36.56.94.52,1.78.23,2.53Z"/>
    <path class="cls-1" d="M619.8,193.38c-.09.38-.19.75-.33,1.12-.33.52-.7.94-1.12,1.22-.47.28-1.12.42-1.78,0-.66-.28-1.17-.75-1.5-1.22-.19-.23-.38-.47-.52-.75l-.38-.7c-.51-.89-.94-1.36-1.87-1.27-.94-.05-1.59.28-2.34.75-.38.28-.75.56-1.12.84s-.75.61-1.22.84c-.7.61-1.45,1.26-2.25,1.92-.75.66-1.5,1.31-2.2,2.01-1.36,1.45-2.39,2.95-2.72,4.73-.14.42-.23.8-.28,1.17-.09.38-.14.8-.23,1.22-.19.8-.47,1.73-1.36,2.3-1.36.42-2.76-.52-2.76-1.69-.42-5.34,1.31-10.45,5.25-14.06,1.78-1.45,3.33-3.19,4.78-5.01,1.5-1.83,2.9-3.75,4.4-5.48l.38-.24c2.16-.42,3.61,1.13,4.31,2.44,2.06,2.62,3.51,5.48,4.78,8.48.14.47.14.98.09,1.36Z"/>
    <path class="cls-1" d="M617.22,232.03l-.09.14-.14.09c-.84.66-2.01.75-3,.7-.98,0-2.02-.23-2.86-.33l-.14-.05-.09-.05c-2.39-1.31-2.86-4.08-3.05-6.28,0-.66.14-1.5.94-2.16l.19-.14h.23c2.44,0,5.06.56,6.79,2.72l.09.14c.33.75.84,1.5,1.12,2.29.33.84.52,1.87,0,2.91Z"/>
  </g>
  <g>
    <path class="cls-1" d="M329.09,432.28c-11.76,0-21.29,9.53-21.29,21.28h42.57c0-11.75-9.52-21.28-21.28-21.28Z"/>
    <path class="cls-1" d="M475.67,324.11v76.28c-8.29-2.34-11.95-3.37-20.1-3.37-35.38,0-50.98,15.18-62.13,43.01-14.67-36.83-40.06-44.09-64.1-44.09s-46.76,10.26-58.43,32.28c1.55-2.86,7.73-15.04,7.73-29.99,0-39.83-30.27-64.33-62.37-64.33h-82.89v198.3s171.26.14,171.07.09c6.56,2.48,14.71,4.12,24.37,4.12,27.51,0,51.78-10.87,67.66-40.39,11.34,27.83,33.08,37.67,57.59,37.67,4.4,0,8.25-.56,11.57-1.31l69.68.05v-208.32h-59.65ZM232.62,520.62l-37.02-57.16v-41.52l8.57-.19c13.73,0,24.83-10.21,24.83-22.87s-10.4-22.82-24.13-22.82l-22.12.19v144.36h-37.06v-174.45h61.1c.84-.05,4.92-.05,5.81-.05,29,0,52.53,23.05,52.53,51.54,0,24.22-17.06,44.51-40.02,50.04l51.21,72.91h-43.72ZM384.67,473.62l-76.94-.05c-.09.75.23.47.23,1.22,0,12,10.59,21.74,23.66,21.74,9.84,0,18.27-5.48,21.88-13.26l28.25,13.07c-9.75,17.2-28.68,28.16-52.95,28.16-31.82,0-57.63-26.15-57.63-58.34s25.82-58.29,57.59-58.29,56.79,20.71,56.27,58.43c0,2.48-.14,4.92-.38,7.31ZM523.41,520.76h-34.63v-14.06c-9.28,9.32-21.6,15.13-35.19,15.13-28.77,0-52.1-25.54-52.1-57.02s23.33-56.98,52.1-56.98c13.45,0,25.77,5.53,35,14.71v-86.54h34.81v184.75Z"/>
    <path class="cls-1" d="M437.91,465.88c0,15.46,11.45,27.99,25.58,27.99s25.57-12.53,25.57-27.99-11.45-27.99-25.57-27.99-25.58,12.53-25.58,27.99Z"/>
    <path class="cls-1" d="M828.31,324.86v77.31h-131.43c.94-4.36,1.5-8.48,1.5-11.29,0-40.48-30.32-55.99-61.85-55.95h-77.45v197.36h95.91c13.73.09,43.11-14.85,50-31.49,9.56,31.07,42.87,37.67,62.08,37.67,8.2,0,19.4-2.39,30.03-6.09h149.52v-207.53h-118.31ZM647.96,520.76h-76.89v-173.56l59.56-.05c19.87,0,34.58,4.08,42.87,13.21,8.01,8.57,12.56,19.49,12.56,31.35,0,13.07-5.81,25.02-15.32,33.92,23.48,10.87,30.46,25.07,30.46,44.94,0,27.32-23.76,49.67-53.23,50.18ZM822.12,483.46c0,23.52-24.37,42.59-54.4,42.59s-54.35-19.07-54.35-42.59v-69.54h34.58v62.83c0,10.45,8.9,18.98,19.91,18.98s19.87-8.53,19.87-18.98v-62.83h34.39v69.54ZM876.1,520.9h-34.86v-183.54h34.86v183.54ZM935,520.9h-34.82v-183.54h34.82v183.54Z"/>
    <path class="cls-1" d="M641.52,445.49h-22.19v-31.37h12.1c10.22,0,18.49-8.28,18.49-18.49s-8.27-18.49-18.49-18.49h-23.24v113.16h33.32c13.45-.84,21.3-9.67,21.73-22.45,0-12.38-9.34-22.37-21.73-22.37Z"/>
  </g>
</svg>